<svg xmlns="http://www.w3.org/2000/svg" width="1000" height="1000"><defs><clipPath id="b"><path fill="currentColor" d="M780.5 620q6.5 120-106 175.5T447 821q-115-30-260-92T64 508q22-159 145.5-228t250-169Q586 11 711 114.5T805 359q-31 141-24.5 261Z"/></clipPath><filter id="a" x="-50vw" y="-50vh" width="100vw" height="100vh"><feFlood flood-color="#fff" result="neutral-gray"/><feTurbulence type="fractalNoise" baseFrequency="2.5" numOctaves="100" stitchTiles="stitch" result="noise"/><feColorMatrix in="noise" type="saturate" values="0" result="destaturatedNoise"/><feComponentTransfer in="desaturatedNoise" result="theNoise"><feFuncA type="table" tableValues="0 0 0.3 0"/></feComponentTransfer><feBlend in="SourceGraphic" in2="theNoise" mode="soft-light" result="noisy-image"/></filter></defs><g filter="url(#a)" clip-path="url(#b)"><path fill="#444cf7" d="M780.5 620q6.5 120-106 175.5T447 821q-115-30-260-92T64 508q22-159 145.5-228t250-169Q586 11 711 114.5T805 359q-31 141-24.5 261Z"/></g></svg>